<?xml version="1.0" encoding="UTF-8"?>
<!--Generator: Apple Native CoreSVG 232.5-->
<!DOCTYPE svg
PUBLIC "-//W3C//DTD SVG 1.1//EN"
       "http://www.w3.org/Graphics/SVG/1.1/DTD/svg11.dtd">
<svg version="1.1" xmlns="http://www.w3.org/2000/svg" xmlns:xlink="http://www.w3.org/1999/xlink" width="3300" height="2200">
 <!--glyph: "", point size: 100.0, font version: "19.0d6e1", template writer version: "123"-->
 <style>.monochrome-0 {}
.monochrome-1 {}

.multicolor-0:tintColor {}
.multicolor-1:tintColor {}

.hierarchical-0:secondary {}
.hierarchical-1:primary {}

.SFSymbolsPreview007AFF {fill:#007AFF;opacity:1.0}
</style>
 <g id="Notes">
  <rect height="2200" id="artboard" style="fill:white;opacity:1" width="3300" x="0" y="0"/>
  <line style="fill:none;stroke:black;opacity:1;stroke-width:0.5;" x1="263" x2="3036" y1="292" y2="292"/>
  <text style="stroke:none;fill:black;font-family:sans-serif;font-size:13;font-weight:bold;" transform="matrix(1 0 0 1 263 322)">Weight/Scale Variations</text>
  <text style="stroke:none;fill:black;font-family:sans-serif;font-size:13;text-anchor:middle;" transform="matrix(1 0 0 1 559.711 322)">Ultralight</text>
  <text style="stroke:none;fill:black;font-family:sans-serif;font-size:13;text-anchor:middle;" transform="matrix(1 0 0 1 856.422 322)">Thin</text>
  <text style="stroke:none;fill:black;font-family:sans-serif;font-size:13;text-anchor:middle;" transform="matrix(1 0 0 1 1153.13 322)">Light</text>
  <text style="stroke:none;fill:black;font-family:sans-serif;font-size:13;text-anchor:middle;" transform="matrix(1 0 0 1 1449.84 322)">Regular</text>
  <text style="stroke:none;fill:black;font-family:sans-serif;font-size:13;text-anchor:middle;" transform="matrix(1 0 0 1 1746.56 322)">Medium</text>
  <text style="stroke:none;fill:black;font-family:sans-serif;font-size:13;text-anchor:middle;" transform="matrix(1 0 0 1 2043.27 322)">Semibold</text>
  <text style="stroke:none;fill:black;font-family:sans-serif;font-size:13;text-anchor:middle;" transform="matrix(1 0 0 1 2339.98 322)">Bold</text>
  <text style="stroke:none;fill:black;font-family:sans-serif;font-size:13;text-anchor:middle;" transform="matrix(1 0 0 1 2636.69 322)">Heavy</text>
  <text style="stroke:none;fill:black;font-family:sans-serif;font-size:13;text-anchor:middle;" transform="matrix(1 0 0 1 2933.4 322)">Black</text>
  <line style="fill:none;stroke:black;opacity:1;stroke-width:0.5;" x1="263" x2="3036" y1="1903" y2="1903"/>
  <g transform="matrix(0.2 0 0 0.2 263 1933)">
   <path d="m46.2402 4.15039c21.5332 0 39.4531-17.8711 39.4531-39.4043s-17.9688-39.4043-39.502-39.4043c-21.4844 0-39.3555 17.8711-39.3555 39.4043s17.9199 39.4043 39.4043 39.4043Zm0-7.42188c-17.7246 0-31.8848-14.209-31.8848-31.9824s14.1113-31.9824 31.8359-31.9824c17.7734 0 32.0312 14.209 32.0312 31.9824s-14.209 31.9824-31.9824 31.9824Zm-17.9688-31.9824c0 2.14844 1.51367 3.61328 3.75977 3.61328h10.498v10.5957c0 2.19727 1.46484 3.71094 3.61328 3.71094 2.24609 0 3.71094-1.51367 3.71094-3.71094v-10.5957h10.5957c2.19727 0 3.71094-1.46484 3.71094-3.61328 0-2.19727-1.51367-3.71094-3.71094-3.71094h-10.5957v-10.5469c0-2.24609-1.46484-3.75977-3.71094-3.75977-2.14844 0-3.61328 1.51367-3.61328 3.75977v10.5469h-10.498c-2.24609 0-3.75977 1.51367-3.75977 3.71094Z"/>
  </g>
  <g transform="matrix(0.2 0 0 0.2 281.506 1933)">
   <path d="m58.5449 14.5508c27.2461 0 49.8047-22.6074 49.8047-49.8047 0-27.2461-22.6074-49.8047-49.8535-49.8047-27.1973 0-49.7559 22.5586-49.7559 49.8047 0 27.1973 22.6074 49.8047 49.8047 49.8047Zm0-8.30078c-23.0469 0-41.4551-18.457-41.4551-41.5039s18.3594-41.5039 41.4062-41.5039 41.5527 18.457 41.5527 41.5039-18.457 41.5039-41.5039 41.5039Zm-22.6562-41.5039c0 2.39258 1.66016 4.00391 4.15039 4.00391h14.3555v14.4043c0 2.44141 1.66016 4.15039 4.05273 4.15039 2.44141 0 4.15039-1.66016 4.15039-4.15039v-14.4043h14.4043c2.44141 0 4.15039-1.61133 4.15039-4.00391 0-2.44141-1.70898-4.15039-4.15039-4.15039h-14.4043v-14.3555c0-2.49023-1.70898-4.19922-4.15039-4.19922-2.39258 0-4.05273 1.70898-4.05273 4.19922v14.3555h-14.3555c-2.49023 0-4.15039 1.70898-4.15039 4.15039Z"/>
  </g>
  <g transform="matrix(0.2 0 0 0.2 304.924 1933)">
   <path d="m74.8535 28.3203c34.8145 0 63.623-28.8086 63.623-63.5742 0-34.8145-28.8574-63.623-63.6719-63.623-34.7656 0-63.5254 28.8086-63.5254 63.623 0 34.7656 28.8086 63.5742 63.5742 63.5742Zm0-9.08203c-30.1758 0-54.4434-24.3164-54.4434-54.4922 0-30.2246 24.2188-54.4922 54.3945-54.4922 30.2246 0 54.541 24.2676 54.541 54.4922 0 30.1758-24.2676 54.4922-54.4922 54.4922Zm-28.8574-54.4922c0 2.58789 1.85547 4.39453 4.58984 4.39453h19.7266v19.7754c0 2.68555 1.85547 4.58984 4.44336 4.58984 2.68555 0 4.54102-1.85547 4.54102-4.58984v-19.7754h19.7754c2.68555 0 4.58984-1.80664 4.58984-4.39453 0-2.73438-1.85547-4.58984-4.58984-4.58984h-19.7754v-19.7266c0-2.73438-1.85547-4.63867-4.54102-4.63867-2.58789 0-4.44336 1.9043-4.44336 4.63867v19.7266h-19.7266c-2.73438 0-4.58984 1.85547-4.58984 4.58984Z"/>
  </g>
  <text style="stroke:none;fill:black;font-family:sans-serif;font-size:13;font-weight:bold;" transform="matrix(1 0 0 1 263 1953)">Design Variations</text>
  <text style="stroke:none;fill:black;font-family:sans-serif;font-size:13;" transform="matrix(1 0 0 1 263 1971)">Symbols are supported in up to nine weights and three scales.</text>
  <text style="stroke:none;fill:black;font-family:sans-serif;font-size:13;" transform="matrix(1 0 0 1 263 1989)">For optimal layout with text and other symbols, vertically align</text>
  <text style="stroke:none;fill:black;font-family:sans-serif;font-size:13;" transform="matrix(1 0 0 1 263 2007)">symbols with the adjacent text.</text>
  <line style="fill:none;stroke:#00AEEF;stroke-width:0.5;opacity:1.0;" x1="776" x2="776" y1="1919" y2="1933"/>
  <g transform="matrix(0.2 0 0 0.2 776 1933)">
   <path d="m16.5527 0.78125c2.58789 0 3.85742-0.976562 4.78516-3.71094l6.29883-17.2363h28.8086l6.29883 17.2363c0.927734 2.73438 2.19727 3.71094 4.73633 3.71094 2.58789 0 4.24805-1.5625 4.24805-4.00391 0-0.830078-0.146484-1.61133-0.537109-2.63672l-22.9004-60.9863c-1.12305-2.97852-3.125-4.49219-6.25-4.49219-3.02734 0-5.07812 1.46484-6.15234 4.44336l-22.9004 61.084c-0.390625 1.02539-0.537109 1.80664-0.537109 2.63672 0 2.44141 1.5625 3.95508 4.10156 3.95508Zm13.4766-28.3691 11.8652-32.8613h0.244141l11.8652 32.8613Z"/>
  </g>
  <line style="fill:none;stroke:#00AEEF;stroke-width:0.5;opacity:1.0;" x1="792.836" x2="792.836" y1="1919" y2="1933"/>
  <text style="stroke:none;fill:black;font-family:sans-serif;font-size:13;font-weight:bold;" transform="matrix(1 0 0 1 776 1953)">Margins</text>
  <text style="stroke:none;fill:black;font-family:sans-serif;font-size:13;" transform="matrix(1 0 0 1 776 1971)">Leading and trailing margins on the left and right side of each symbol</text>
  <text style="stroke:none;fill:black;font-family:sans-serif;font-size:13;" transform="matrix(1 0 0 1 776 1989)">can be adjusted by modifying the x-location of the margin guidelines.</text>
  <text style="stroke:none;fill:black;font-family:sans-serif;font-size:13;" transform="matrix(1 0 0 1 776 2007)">Modifications are automatically applied proportionally to all</text>
  <text style="stroke:none;fill:black;font-family:sans-serif;font-size:13;" transform="matrix(1 0 0 1 776 2025)">scales and weights.</text>
  <g transform="matrix(0.2 0 0 0.2 1289 1933)">
   <path d="m14.209 9.32617 8.49609 8.54492c4.29688 4.3457 9.22852 4.05273 13.8672-1.07422l53.4668-58.9355-4.83398-4.88281-53.0762 58.3984c-1.75781 2.00195-3.41797 2.49023-5.76172 0.146484l-5.85938-5.81055c-2.34375-2.29492-1.80664-4.00391 0.195312-5.81055l57.373-54.0039-4.88281-4.83398-57.959 54.4434c-4.93164 4.58984-5.32227 9.47266-1.02539 13.8184Zm32.0801-90.9668c-2.09961 2.05078-2.24609 4.93164-1.07422 6.88477 1.17188 1.80664 3.4668 2.97852 6.68945 2.14844 7.32422-1.70898 14.9414-2.00195 22.0703 2.68555l-2.92969 7.27539c-1.70898 4.15039-0.830078 7.08008 1.85547 9.81445l11.4746 11.5723c2.44141 2.44141 4.49219 2.53906 7.32422 2.05078l5.32227-0.976562 3.32031 3.36914-0.195312 2.7832c-0.195312 2.49023 0.439453 4.39453 2.88086 6.78711l3.80859 3.71094c2.39258 2.39258 5.46875 2.53906 7.8125 0.195312l14.5508-14.5996c2.34375-2.34375 2.24609-5.32227-0.146484-7.71484l-3.85742-3.80859c-2.39258-2.39258-4.24805-3.17383-6.64062-2.97852l-2.88086 0.244141-3.22266-3.17383 1.2207-5.61523c0.634766-2.83203-0.146484-5.0293-3.07617-7.95898l-10.9863-10.9375c-16.6992-16.6016-38.8672-16.2109-53.3203-1.75781Zm7.4707 1.85547c12.1582-8.88672 28.6133-7.37305 39.7461 3.75977l12.1582 12.0605c1.17188 1.17188 1.36719 2.09961 1.02539 3.80859l-1.61133 7.42188 7.51953 7.42188 4.93164-0.292969c1.26953-0.0488281 1.66016 0.0488281 2.63672 1.02539l2.88086 2.88086-12.207 12.207-2.88086-2.88086c-0.976562-0.976562-1.12305-1.36719-1.07422-2.68555l0.341797-4.88281-7.4707-7.42188-7.61719 1.26953c-1.61133 0.341797-2.34375 0.195312-3.56445-0.976562l-10.0098-10.0098c-1.26953-1.17188-1.41602-2.00195-0.634766-3.85742l4.39453-10.4492c-7.8125-7.27539-17.9688-10.4004-28.125-7.42188-0.78125 0.195312-1.07422-0.439453-0.439453-0.976562Z"/>
  </g>
  <text style="stroke:none;fill:black;font-family:sans-serif;font-size:13;font-weight:bold;" transform="matrix(1 0 0 1 1289 1953)">Exporting</text>
  <text style="stroke:none;fill:black;font-family:sans-serif;font-size:13;" transform="matrix(1 0 0 1 1289 1971)">Symbols should be outlined when exporting to ensure the</text>
  <text style="stroke:none;fill:black;font-family:sans-serif;font-size:13;" transform="matrix(1 0 0 1 1289 1989)">design is preserved when submitting to Xcode.</text>
  <text id="template-version" style="stroke:none;fill:black;font-family:sans-serif;font-size:13;text-anchor:end;" transform="matrix(1 0 0 1 3036 1933)">Template v.4.0</text>
  <text style="stroke:none;fill:black;font-family:sans-serif;font-size:13;text-anchor:end;" transform="matrix(1 0 0 1 3036 1951)">Requires Xcode 14 or greater</text>
  <text id="descriptive-name" style="stroke:none;fill:black;font-family:sans-serif;font-size:13;text-anchor:end;" transform="matrix(1 0 0 1 3036 1969)">Generated from rectangle</text>
  <text style="stroke:none;fill:black;font-family:sans-serif;font-size:13;text-anchor:end;" transform="matrix(1 0 0 1 3036 1987)">Typeset at 100.0 points</text>
  <text style="stroke:none;fill:black;font-family:sans-serif;font-size:13;" transform="matrix(1 0 0 1 263 726)">Small</text>
  <text style="stroke:none;fill:black;font-family:sans-serif;font-size:13;" transform="matrix(1 0 0 1 263 1156)">Medium</text>
  <text style="stroke:none;fill:black;font-family:sans-serif;font-size:13;" transform="matrix(1 0 0 1 263 1586)">Large</text>
 </g>
 <g id="Guides">
  <g id="H-reference" style="fill:#27AAE1;stroke:none;" transform="matrix(1 0 0 1 339 696)">
   <path d="M0.993654 0L3.63775 0L29.3281-67.1323L30.0303-67.1323L30.0303-70.459L28.1226-70.459ZM11.6885-24.4799L46.9815-24.4799L46.2315-26.7285L12.4385-26.7285ZM55.1196 0L57.7637 0L30.6382-70.459L29.4326-70.459L29.4326-67.1323Z"/>
  </g>
  <line id="Baseline-S" style="fill:none;stroke:#27AAE1;opacity:1;stroke-width:0.5;" x1="263" x2="3036" y1="696" y2="696"/>
  <line id="Capline-S" style="fill:none;stroke:#27AAE1;opacity:1;stroke-width:0.5;" x1="263" x2="3036" y1="625.541" y2="625.541"/>
  <g id="H-reference" style="fill:#27AAE1;stroke:none;" transform="matrix(1 0 0 1 339 1126)">
   <path d="M0.993654 0L3.63775 0L29.3281-67.1323L30.0303-67.1323L30.0303-70.459L28.1226-70.459ZM11.6885-24.4799L46.9815-24.4799L46.2315-26.7285L12.4385-26.7285ZM55.1196 0L57.7637 0L30.6382-70.459L29.4326-70.459L29.4326-67.1323Z"/>
  </g>
  <line id="Baseline-M" style="fill:none;stroke:#27AAE1;opacity:1;stroke-width:0.5;" x1="263" x2="3036" y1="1126" y2="1126"/>
  <line id="Capline-M" style="fill:none;stroke:#27AAE1;opacity:1;stroke-width:0.5;" x1="263" x2="3036" y1="1055.54" y2="1055.54"/>
  <g id="H-reference" style="fill:#27AAE1;stroke:none;" transform="matrix(1 0 0 1 339 1556)">
   <path d="M0.993654 0L3.63775 0L29.3281-67.1323L30.0303-67.1323L30.0303-70.459L28.1226-70.459ZM11.6885-24.4799L46.9815-24.4799L46.2315-26.7285L12.4385-26.7285ZM55.1196 0L57.7637 0L30.6382-70.459L29.4326-70.459L29.4326-67.1323Z"/>
  </g>
  <line id="Baseline-L" style="fill:none;stroke:#27AAE1;opacity:1;stroke-width:0.5;" x1="263" x2="3036" y1="1556" y2="1556"/>
  <line id="Capline-L" style="fill:none;stroke:#27AAE1;opacity:1;stroke-width:0.5;" x1="263" x2="3036" y1="1485.54" y2="1485.54"/>
  <line id="left-margin-Ultralight-S" style="fill:none;stroke:#00AEEF;stroke-width:0.5;opacity:1.0;" x1="505.702" x2="505.702" y1="600.785" y2="720.121"/>
  <line id="right-margin-Ultralight-S" style="fill:none;stroke:#00AEEF;stroke-width:0.5;opacity:1.0;" x1="613.72" x2="613.72" y1="600.785" y2="720.121"/>
  <line id="left-margin-Regular-S" style="fill:none;stroke:#00AEEF;stroke-width:0.5;opacity:1.0;" x1="1394.79" x2="1394.79" y1="600.785" y2="720.121"/>
  <line id="right-margin-Regular-S" style="fill:none;stroke:#00AEEF;stroke-width:0.5;opacity:1.0;" x1="1504.9" x2="1504.9" y1="600.785" y2="720.121"/>
  <line id="left-margin-Black-S" style="fill:none;stroke:#00AEEF;stroke-width:0.5;opacity:1.0;" x1="2877.35" x2="2877.35" y1="600.785" y2="720.121"/>
  <line id="right-margin-Black-S" style="fill:none;stroke:#00AEEF;stroke-width:0.5;opacity:1.0;" x1="2989.45" x2="2989.45" y1="600.785" y2="720.121"/>
 </g>
 <g id="Symbols">
  <g id="Black-S" transform="matrix(1 0 0 1 2877.35 696)">
   <path class="monochrome-0 multicolor-0:tintColor hierarchical-0:secondary SFSymbolsPreview007AFF" d="M25 2.92969L87.1094 2.92969C96.6797 2.92969 102.344-2.73438 102.344-12.3047L102.344-58.1055C102.344-67.6758 96.6797-73.3398 87.1094-73.3398L25-73.3398C15.4297-73.3398 9.76562-67.6758 9.76562-58.1055L9.76562-12.3047C9.76562-2.73438 15.4297 2.92969 25 2.92969ZM27.2461-11.2305C25-11.2305 23.9258-12.1094 23.9258-14.5508L23.9258-55.8594C23.9258-58.3008 25-59.1797 27.2461-59.1797L84.8633-59.1797C87.1094-59.1797 88.1836-58.3008 88.1836-55.8594L88.1836-14.5508C88.1836-12.1094 87.1094-11.2305 84.8633-11.2305Z"/>
   <path class="monochrome-1 multicolor-1:tintColor hierarchical-1:primary SFSymbolsPreview007AFF" d="M39.1931-34.9898L49.4936-34.9898C53.2289-34.9898 55.3922-37.1531 55.3922-40.8884L55.3922-50.3227C55.3922-52.7064 53.5539-54.3273 51.1746-54.3273C48.7938-54.3273 46.9615-52.7019 46.9615-50.3227L46.9615-50.7983L47.4659-48.8075L46.6778-49.7207L43.5299-52.8886C42.7272-53.6928 41.6442-54.1101 40.5064-54.1101C37.9292-54.1101 36.2141-52.2139 36.2141-49.6367C36.2141-48.5598 36.7151-47.6244 37.4889-46.8491L40.6812-43.6843L41.5974-42.919L39.468-43.419L39.1931-43.419C36.8079-43.419 35.184-41.5807 35.187-39.2044C35.187-36.7962 36.8139-34.9898 39.1931-34.9898ZM61.0039-16.1784C63.3847-16.1784 65.2185-17.8038 65.2185-20.1831L65.2185-19.5796L64.714-21.5719L65.5021-20.6572L68.5719-17.5646C69.3762-16.7618 70.4606-16.346 71.5984-16.346C74.1771-16.346 75.8908-18.2422 75.8908-20.8164C75.8908-21.8964 75.3897-22.8317 74.6129-23.607L71.4973-26.6936L70.581-27.4619L72.7135-26.9604L72.862-26.9604C75.2473-26.9604 76.8697-28.7972 76.8667-31.1765C76.8667-33.5847 75.2383-35.3896 72.862-35.3896L62.6864-35.3896C58.9511-35.3896 56.7908-33.2264 56.7908-29.494L56.7908-20.1831C56.7908-17.7993 58.6247-16.1784 61.0039-16.1784Z"/>
  </g>
  <g id="Regular-S" transform="matrix(1 0 0 1 1394.79 696)">
   <path class="monochrome-0 multicolor-0:tintColor hierarchical-0:secondary SFSymbolsPreview007AFF" d="M22.2168 0.390625L87.8906 0.390625C96.2402 0.390625 100.342-3.71094 100.342-11.9141L100.342-58.4961C100.342-66.6992 96.2402-70.8008 87.8906-70.8008L22.2168-70.8008C13.916-70.8008 9.76562-66.6992 9.76562-58.4961L9.76562-11.9141C9.76562-3.71094 13.916 0.390625 22.2168 0.390625ZM22.3145-6.68945C18.7988-6.68945 16.7969-8.59375 16.7969-12.2559L16.7969-58.1543C16.7969-61.8652 18.7988-63.7207 22.3145-63.7207L87.793-63.7207C91.3086-63.7207 93.3105-61.8652 93.3105-58.1543L93.3105-12.2559C93.3105-8.59375 91.3086-6.68945 87.793-6.68945Z"/>
   <path class="monochrome-1 multicolor-1:tintColor hierarchical-1:primary SFSymbolsPreview007AFF" d="M39.3875-36.1003L49.5478-36.1003C52.4445-36.1003 54.1172-37.773 54.1172-40.6697L54.1172-50.4522C54.1172-52.1312 52.8396-53.3452 51.1483-53.3452C49.4708-53.3452 48.1965-52.1435 48.1965-50.4522L48.1965-50.3826L48.6675-45.5815L45.712-48.7784L41.1207-53.4065C40.5529-53.9898 39.8097-54.2659 39.0145-54.2659C37.1966-54.2659 35.9274-52.9934 35.9274-51.1755C35.9274-50.3767 36.2676-49.6665 36.8233-49.0952L41.4464-44.4983L44.6449-41.5516L39.7864-42.0055L39.3875-42.0055C37.693-42.0055 36.4773-40.7573 36.4789-39.0677C36.4789-37.3642 37.6962-36.1003 39.3875-36.1003ZM58.9835-17.1235C60.6609-17.1235 61.9214-18.3252 61.9214-20.0165L61.9214-20.0612L61.4503-24.8485L64.4058-21.6654L68.9844-17.0485C69.5384-16.4807 70.297-16.1907 71.0922-16.1907C72.8962-16.1907 74.1794-17.4632 74.1794-19.2795C74.1794-20.0799 73.8391-20.7902 73.2818-21.3614L68.6854-25.9456L65.4869-28.8939L70.347-28.4244L70.7071-28.4244C72.4017-28.4244 73.6018-29.6865 73.6002-31.3778C73.6002-33.0813 72.3968-34.3296 70.7071-34.3296L60.5701-34.3296C57.6733-34.3296 56.0023-32.657 56.0023-29.7619L56.0023-20.0165C56.0023-18.3375 57.2922-17.1235 58.9835-17.1235Z"/>
  </g>
  <g id="Ultralight-S" transform="matrix(1 0 0 1 505.702 696)">
   <path class="monochrome-0 multicolor-0:tintColor hierarchical-0:secondary SFSymbolsPreview007AFF" d="M19.7647-1.65282L88.2539-1.65282C94.7871-1.65282 98.2529-5.20946 98.2529-11.6416L98.2529-58.8594C98.2529-65.2915 94.7871-68.8482 88.2539-68.8482L19.7647-68.8482C13.2349-68.8482 9.76562-65.3823 9.76562-58.8594L9.76562-11.6416C9.76562-5.11864 13.2349-1.65282 19.7647-1.65282ZM19.8623-3.87405C14.6665-3.87405 11.9834-6.55031 11.9834-11.7564L11.9834-58.7446C11.9834-63.9541 14.6665-66.6269 19.8623-66.6269L88.1562-66.6269C93.1704-66.6269 96.0351-63.9541 96.0351-58.7446L96.0351-11.7564C96.0351-6.55031 93.1704-3.87405 88.1562-3.87405Z"/>
   <path class="monochrome-1 multicolor-1:tintColor hierarchical-1:primary SFSymbolsPreview007AFF" d="M37.9449-37.4731L49.7604-37.4731C50.9704-37.4731 51.7031-38.2058 51.7031-39.4158L51.7031-51.2213C51.7031-51.8507 51.2659-52.3655 50.6121-52.3655C49.9683-52.3655 49.5024-51.8751 49.5024-51.2213L49.5024-47.2148L49.7691-40.8638L43.5963-47.1669L37.2415-53.5705C37.0236-53.7841 36.7512-53.883 36.4587-53.883C35.7748-53.883 35.2932-53.4515 35.2932-52.7676C35.2932-52.4551 35.4122-52.1626 35.6301-51.9491L42.0525-45.5367L48.3412-39.3927L41.9614-39.6782L37.9449-39.6782C37.3198-39.6782 36.8195-39.2467 36.8051-38.5785C36.8051-37.9247 37.2911-37.4731 37.9449-37.4731ZM57.0518-17.3108C57.6956-17.3108 58.1515-17.8011 58.1515-18.455L58.1515-23.0815L57.8847-29.4225L64.0575-23.1294L70.7921-16.3604C71.0001-16.1425 71.2681-16.0335 71.5606-16.0335C72.2344-16.0335 72.7261-16.465 72.7261-17.1633C72.7261-17.4614 72.6071-17.7539 72.4035-17.9675L65.6114-24.7596L59.3227-30.8893L65.6881-30.6081L70.3147-30.6081C70.9397-30.6081 71.4445-31.0496 71.4589-31.7034C71.4589-32.3573 70.9829-32.8132 70.3147-32.8132L57.8935-32.8132C56.6835-32.8132 55.9364-32.0805 55.9364-30.8561L55.9364-18.455C55.9364-17.8255 56.398-17.3108 57.0518-17.3108Z"/>
  </g>
 </g>
</svg>
