<svg xmlns="http://www.w3.org/2000/svg" width="3300" height="2200"><style>.monochrome-1{opacity:0;-sfsymbols-clear-behind:true}.SFSymbolsPreview007AFF{fill:#007aff;opacity:1}.SFSymbolsPreviewFFFFFF{fill:#fff;opacity:1}</style><g id="Notes"><path id="artboard" fill="white" d="M0 0H3300V2200H0z"/><path fill="none" stroke="black" stroke-width="0.5" d="M263 292L3036 292"/><text transform="translate(263 322)" fill="black" font-family="sans-serif" font-size="13" font-weight="bold">Weight/Scale Variations</text><text transform="translate(559.711 322)" fill="black" font-family="sans-serif" font-size="13" text-anchor="middle">Ultralight</text><text transform="translate(856.422 322)" fill="black" font-family="sans-serif" font-size="13" text-anchor="middle">Thin</text><text transform="translate(1153.13 322)" fill="black" font-family="sans-serif" font-size="13" text-anchor="middle">Light</text><text transform="translate(1449.84 322)" fill="black" font-family="sans-serif" font-size="13" text-anchor="middle">Regular</text><text transform="translate(1746.56 322)" fill="black" font-family="sans-serif" font-size="13" text-anchor="middle">Medium</text><text transform="translate(2043.27 322)" fill="black" font-family="sans-serif" font-size="13" text-anchor="middle">Semibold</text><text transform="translate(2339.98 322)" fill="black" font-family="sans-serif" font-size="13" text-anchor="middle">Bold</text><text transform="translate(2636.69 322)" fill="black" font-family="sans-serif" font-size="13" text-anchor="middle">Heavy</text><text transform="translate(2933.4 322)" fill="black" font-family="sans-serif" font-size="13" text-anchor="middle">Black</text><path fill="none" stroke="black" stroke-width="0.5" d="M263 1903L3036 1903"/><path d="M46.24 4.15c21.533 0 39.453-17.87 39.453-39.404S67.724-74.658 46.191-74.658c-21.484 0-39.355 17.87-39.355 39.404S24.756 4.15 46.24 4.15zm0-7.421c-17.724 0-31.885-14.21-31.885-31.983s14.112-31.982 31.836-31.982c17.774 0 32.031 14.209 32.031 31.982S64.014-3.27 46.24-3.27zM28.271-35.254c0 2.149 1.514 3.613 3.76 3.613H42.53v10.596c0 2.197 1.465 3.711 3.613 3.711 2.247 0 3.711-1.514 3.711-3.71v-10.597H60.45c2.197 0 3.711-1.464 3.711-3.613 0-2.197-1.514-3.71-3.71-3.71H49.852v-10.548c0-2.246-1.464-3.76-3.71-3.76-2.149 0-3.614 1.514-3.614 3.76v10.547H32.031c-2.246 0-3.76 1.514-3.76 3.711z" transform="matrix(.2 0 0 .2 263 1933)"/><path d="M58.545 14.55c27.246 0 49.805-22.607 49.805-49.804 0-27.246-22.608-49.805-49.854-49.805C31.3-85.059 8.74-62.5 8.74-35.254c0 27.197 22.608 49.805 49.805 49.805zm0-8.3c-23.047 0-41.455-18.457-41.455-41.504s18.36-41.504 41.406-41.504 41.553 18.457 41.553 41.504S81.592 6.25 58.545 6.25zM35.889-35.254c0 2.393 1.66 4.004 4.15 4.004h14.356v14.404c0 2.442 1.66 4.15 4.052 4.15 2.442 0 4.15-1.66 4.15-4.15V-31.25h14.405c2.441 0 4.15-1.611 4.15-4.004 0-2.441-1.709-4.15-4.15-4.15H62.598V-53.76c0-2.49-1.71-4.199-4.15-4.199-2.393 0-4.053 1.709-4.053 4.2v14.355H40.039c-2.49 0-4.15 1.709-4.15 4.15z" transform="matrix(.2 0 0 .2 281.506 1933)"/><path d="M74.853 28.32c34.815 0 63.623-28.808 63.623-63.574 0-34.814-28.857-63.623-63.671-63.623-34.766 0-63.526 28.809-63.526 63.623 0 34.766 28.809 63.574 63.574 63.574zm0-9.082c-30.175 0-54.443-24.316-54.443-54.492 0-30.225 24.219-54.492 54.395-54.492 30.224 0 54.54 24.267 54.54 54.492 0 30.176-24.267 54.492-54.492 54.492zM45.996-35.254c0 2.588 1.856 4.395 4.59 4.395h19.727v19.775c0 2.686 1.855 4.59 4.443 4.59 2.685 0 4.54-1.856 4.54-4.59v-19.775h19.776c2.686 0 4.59-1.807 4.59-4.395 0-2.734-1.855-4.59-4.59-4.59H79.297V-59.57c0-2.735-1.856-4.639-4.541-4.639-2.588 0-4.443 1.904-4.443 4.639v19.726H50.586c-2.734 0-4.59 1.856-4.59 4.59z" transform="matrix(.2 0 0 .2 304.924 1933)"/><text transform="translate(263 1953)" fill="black" font-family="sans-serif" font-size="13" font-weight="bold">Design Variations</text><text transform="translate(263 1971)" fill="black" font-family="sans-serif" font-size="13">Symbols are supported in up to nine weights and three scales.</text><text transform="translate(263 1989)" fill="black" font-family="sans-serif" font-size="13">For optimal layout with text and other symbols, vertically align</text><text transform="translate(263 2007)" fill="black" font-family="sans-serif" font-size="13">symbols with the adjacent text.</text><path fill="none" stroke="#00AEEF" stroke-width="0.5" opacity="1.0" d="M776 1919L776 1933"/><path d="M16.553.781c2.588 0 3.857-.976 4.785-3.71l6.299-17.237h28.808l6.3 17.236C63.671-.195 64.94.781 67.48.781c2.588 0 4.249-1.562 4.249-4.004 0-.83-.147-1.611-.538-2.636l-22.9-60.987c-1.123-2.978-3.125-4.492-6.25-4.492-3.027 0-5.078 1.465-6.152 4.443L12.989-5.81c-.391 1.026-.538 1.807-.538 2.637 0 2.442 1.563 3.955 4.102 3.955zm13.476-28.369l11.865-32.861h.245l11.865 32.861z" transform="matrix(.2 0 0 .2 776 1933)"/><path fill="none" stroke="#00AEEF" stroke-width="0.5" opacity="1.0" d="M792.836 1919L792.836 1933"/><text transform="translate(776 1953)" fill="black" font-family="sans-serif" font-size="13" font-weight="bold">Margins</text><text transform="translate(776 1971)" fill="black" font-family="sans-serif" font-size="13">Leading and trailing margins on the left and right side of each symbol</text><text transform="translate(776 1989)" fill="black" font-family="sans-serif" font-size="13">can be adjusted by modifying the x-location of the margin guidelines.</text><text transform="translate(776 2007)" fill="black" font-family="sans-serif" font-size="13">Modifications are automatically applied proportionally to all</text><text transform="translate(776 2025)" fill="black" font-family="sans-serif" font-size="13">scales and weights.</text><path d="M14.209 9.326l8.496 8.545c4.297 4.346 9.229 4.053 13.867-1.074L90.04-42.14l-4.834-4.882L32.13 11.377c-1.758 2.002-3.418 2.49-5.762.146l-5.86-5.81c-2.343-2.295-1.806-4.004.196-5.81l57.373-54.005-4.883-4.834L15.234-4.492C10.303.098 9.912 4.98 14.21 9.326zm32.08-90.967c-2.1 2.051-2.246 4.932-1.074 6.885 1.172 1.807 3.467 2.979 6.69 2.149 7.324-1.71 14.94-2.002 22.07 2.685l-2.93 7.276c-1.709 4.15-.83 7.08 1.855 9.814L84.375-41.26c2.441 2.442 4.492 2.54 7.324 2.051l5.323-.977 3.32 3.37-.196 2.783c-.195 2.49.44 4.394 2.881 6.787l3.809 3.71c2.393 2.393 5.469 2.54 7.812.196l14.551-14.6c2.344-2.343 2.246-5.322-.146-7.714l-3.858-3.809c-2.392-2.392-4.248-3.174-6.64-2.978l-2.881.244-3.223-3.174 1.22-5.615c.636-2.832-.146-5.03-3.075-7.96L99.609-79.882C82.91-96.484 60.742-96.093 46.29-81.64zm7.47 1.856c12.159-8.887 28.614-7.373 39.747 3.76l12.158 12.06c1.172 1.172 1.367 2.1 1.025 3.809l-1.61 7.422 7.519 7.421 4.931-.293c1.27-.048 1.66.05 2.637 1.026l2.88 2.88-12.206 12.208-2.881-2.881c-.977-.977-1.123-1.367-1.074-2.686l.342-4.882-7.471-7.422-7.617 1.27c-1.612.341-2.344.194-3.565-.977l-10.01-10.01c-1.269-1.172-1.416-2.002-.634-3.858l4.394-10.449c-7.812-7.275-17.969-10.4-28.125-7.422-.781.196-1.074-.44-.44-.976z" transform="matrix(.2 0 0 .2 1289 1933)"/><text transform="translate(1289 1953)" fill="black" font-family="sans-serif" font-size="13" font-weight="bold">Exporting</text><text transform="translate(1289 1971)" fill="black" font-family="sans-serif" font-size="13">Symbols should be outlined when exporting to ensure the</text><text transform="translate(1289 1989)" fill="black" font-family="sans-serif" font-size="13">design is preserved when submitting to Xcode.</text><text id="template-version" transform="translate(3036 1933)" fill="black" font-family="sans-serif" font-size="13" text-anchor="end">Template v.4.0</text><text transform="translate(3036 1951)" fill="black" font-family="sans-serif" font-size="13" text-anchor="end">Requires Xcode 14 or greater</text><text id="descriptive-name" transform="translate(3036 1969)" fill="black" font-family="sans-serif" font-size="13" text-anchor="end">Generated from</text><text transform="translate(3036 1987)" fill="black" font-family="sans-serif" font-size="13" text-anchor="end">Typeset at 100.0 points</text><text transform="translate(263 726)" fill="black" font-family="sans-serif" font-size="13">Small</text><text transform="translate(263 1156)" fill="black" font-family="sans-serif" font-size="13">Medium</text><text transform="translate(263 1586)" fill="black" font-family="sans-serif" font-size="13">Large</text></g><g id="Guides"><path d="M.994 0h2.644l25.69-67.132h.702v-3.327h-1.907zm10.694-24.48h35.293l-.75-2.248H12.438zM55.12 0h2.644L30.638-70.459h-1.205v3.327z" transform="translate(339 696)" id="H-reference" fill="#27AAE1"/><path id="Baseline-S" fill="none" stroke="#27AAE1" stroke-width="0.5" d="M263 696L3036 696"/><path id="Capline-S" fill="none" stroke="#27AAE1" stroke-width="0.5" d="M263 625.541L3036 625.541"/><path d="M.994 0h2.644l25.69-67.132h.702v-3.327h-1.907zm10.694-24.48h35.293l-.75-2.248H12.438zM55.12 0h2.644L30.638-70.459h-1.205v3.327z" transform="translate(339 1126)" id="H-reference" fill="#27AAE1"/><path id="Baseline-M" fill="none" stroke="#27AAE1" stroke-width="0.5" d="M263 1126L3036 1126"/><path id="Capline-M" fill="none" stroke="#27AAE1" stroke-width="0.5" d="M263 1055.54L3036 1055.54"/><path d="M.994 0h2.644l25.69-67.132h.702v-3.327h-1.907zm10.694-24.48h35.293l-.75-2.248H12.438zM55.12 0h2.644L30.638-70.459h-1.205v3.327z" transform="translate(339 1556)" id="H-reference" fill="#27AAE1"/><path id="Baseline-L" fill="none" stroke="#27AAE1" stroke-width="0.5" d="M263 1556L3036 1556"/><path id="Capline-L" fill="none" stroke="#27AAE1" stroke-width="0.5" d="M263 1485.54L3036 1485.54"/><path id="left-margin-Ultralight-S" fill="none" stroke="#00AEEF" stroke-width="0.5" opacity="1.0" d="M505.702 600.785L505.702 720.121"/><path id="right-margin-Ultralight-S" fill="none" stroke="#00AEEF" stroke-width="0.5" opacity="1.0" d="M613.72 600.785L613.72 720.121"/><path id="left-margin-Regular-S" fill="none" stroke="#00AEEF" stroke-width="0.5" opacity="1.0" d="M1394.79 600.785L1394.79 720.121"/><path id="right-margin-Regular-S" fill="none" stroke="#00AEEF" stroke-width="0.5" opacity="1.0" d="M1504.9 600.785L1504.9 720.121"/><path id="left-margin-Black-S" fill="none" stroke="#00AEEF" stroke-width="0.5" opacity="1.0" d="M2877.35 600.785L2877.35 720.121"/><path id="right-margin-Black-S" fill="none" stroke="#00AEEF" stroke-width="0.5" opacity="1.0" d="M2989.45 600.785L2989.45 720.121"/></g><g id="Symbols"><g id="Black-S"><path class="monochrome-0 multicolor-0:tintColor hierarchical-0:secondary SFSymbolsPreview007AFF" d="M25 2.93h62.11c9.57 0 15.234-5.664 15.234-15.235v-45.8c0-9.57-5.664-15.235-15.235-15.235H25c-9.57 0-15.234 5.664-15.234 15.235v45.8C9.766-2.735 15.43 2.93 25 2.93zm2.246-14.16c-2.246 0-3.32-.88-3.32-3.32v-41.31c0-2.44 1.074-3.32 3.32-3.32h57.617c2.246 0 3.32.88 3.32 3.32v41.31c0 2.44-1.074 3.32-3.32 3.32z" transform="translate(2877.35 696)"/><path class="monochrome-1 multicolor-1:tintColor hierarchical-1:primary SFSymbolsPreviewFFFFFF" d="M25.333-78.996l74.713 74.713a9.39 9.39 0 0 1 0 13.28 9.39 9.39 0 0 1-13.28 0L12.055-65.718a9.39 9.39 0 0 1 13.28-13.28z" transform="translate(2877.35 696)"/><path class="monochrome-2 multicolor-2:tintColor hierarchical-2:primary SFSymbolsPreview007AFF" d="M21.183-74.846L95.895-.133a3.52 3.52 0 0 1-4.978 4.978L16.204-69.867a3.52 3.52 0 0 1 4.978-4.978z" transform="translate(2877.35 696)"/></g><g id="Regular-S"><path class="monochrome-0 multicolor-0:tintColor hierarchical-0:secondary SFSymbolsPreview007AFF" d="M22.217.39H87.89c8.35 0 12.451-4.1 12.451-12.304v-46.582c0-8.203-4.102-12.305-12.451-12.305H22.217c-8.301 0-12.451 4.102-12.451 12.305v46.582C9.766-3.711 13.916.39 22.216.39zm.098-7.08c-3.516 0-5.518-1.904-5.518-5.566v-45.898c0-3.711 2.002-5.567 5.517-5.567h65.479c3.516 0 5.517 1.856 5.517 5.567v45.898c0 3.662-2.001 5.567-5.517 5.567z" transform="translate(1394.79 696)"/><path class="monochrome-1 multicolor-1:tintColor hierarchical-1:primary SFSymbolsPreviewFFFFFF" d="M25.735-75.895L95.95-5.68A8.185 8.185 0 1 1 84.376 5.895L14.16-64.32a8.185 8.185 0 1 1 11.575-11.575z" transform="translate(1394.79 696)"/><path class="monochrome-2 multicolor-2:tintColor hierarchical-2:primary SFSymbolsPreview007AFF" d="M22.34-72.501L92.557-2.286a3.385 3.385 0 1 1-4.787 4.787L17.554-67.714a3.385 3.385 0 0 1 4.787-4.787z" transform="translate(1394.79 696)"/></g><g id="Ultralight-S"><path class="monochrome-0 multicolor-0:tintColor hierarchical-0:secondary SFSymbolsPreview007AFF" d="M19.765-1.653h68.489c6.533 0 9.999-3.556 9.999-9.989v-47.217c0-6.432-3.466-9.99-10-9.99H19.766c-6.53 0-10 3.467-10 9.99v47.217c0 6.523 3.47 9.99 10 9.99zm.097-2.221c-5.195 0-7.879-2.676-7.879-7.882v-46.989c0-5.21 2.683-7.882 7.88-7.882h68.293c5.014 0 7.88 2.673 7.88 7.882v46.989c0 5.206-2.866 7.882-7.88 7.882z" transform="translate(505.702 696)"/><path class="monochrome-1 multicolor-1:tintColor hierarchical-1:primary SFSymbolsPreviewFFFFFF" d="M22.016-72.862L91.871-3.007a4.15 4.15 0 0 1-5.869 5.869L16.147-66.993a4.15 4.15 0 1 1 5.869-5.869z" transform="translate(505.702 696)"/><path class="monochrome-2 multicolor-2:tintColor hierarchical-2:primary SFSymbolsPreview007AFF" d="M19.873-70.72L89.728-.864A1.12 1.12 0 1 1 88.144.72L18.29-69.137a1.12 1.12 0 1 1 1.584-1.584z" transform="translate(505.702 696)"/></g></g></svg>