<?xml version="1.0" encoding="UTF-8"?>
<!--Generator: Apple Native CoreSVG 232.5-->
<!DOCTYPE svg
PUBLIC "-//W3C//DTD SVG 1.1//EN"
       "http://www.w3.org/Graphics/SVG/1.1/DTD/svg11.dtd">
<svg version="1.1" xmlns="http://www.w3.org/2000/svg" xmlns:xlink="http://www.w3.org/1999/xlink" width="3300" height="2200">
 <!--glyph: "uni101FB2.medium", point size: 100.0, font version: "19.0d6e1", template writer version: "123"-->
 <style>.monochrome-0 {}
.monochrome-1 {}
.monochrome-2 {opacity:0.0;-sfsymbols-clear-behind:true}

.multicolor-0:tintColor {}
.multicolor-1:tintColor {}
.multicolor-2:tintColor {opacity:0.0;-sfsymbols-clear-behind:true}

.hierarchical-0:secondary {}
.hierarchical-1:tertiary {}
.hierarchical-2:primary {}

.SFSymbolsPreview007AFF {fill:#007AFF;opacity:1.0}
.SFSymbolsPreviewFFFFFF {fill:#FFFFFF;opacity:1.0}
</style>
 <g id="Notes">
  <rect height="2200" id="artboard" style="fill:white;opacity:1" width="3300" x="0" y="0"/>
  <line style="fill:none;stroke:black;opacity:1;stroke-width:0.5;" x1="263" x2="3036" y1="292" y2="292"/>
  <text style="stroke:none;fill:black;font-family:sans-serif;font-size:13;font-weight:bold;" transform="matrix(1 0 0 1 263 322)">Weight/Scale Variations</text>
  <text style="stroke:none;fill:black;font-family:sans-serif;font-size:13;text-anchor:middle;" transform="matrix(1 0 0 1 559.711 322)">Ultralight</text>
  <text style="stroke:none;fill:black;font-family:sans-serif;font-size:13;text-anchor:middle;" transform="matrix(1 0 0 1 856.422 322)">Thin</text>
  <text style="stroke:none;fill:black;font-family:sans-serif;font-size:13;text-anchor:middle;" transform="matrix(1 0 0 1 1153.13 322)">Light</text>
  <text style="stroke:none;fill:black;font-family:sans-serif;font-size:13;text-anchor:middle;" transform="matrix(1 0 0 1 1449.84 322)">Regular</text>
  <text style="stroke:none;fill:black;font-family:sans-serif;font-size:13;text-anchor:middle;" transform="matrix(1 0 0 1 1746.56 322)">Medium</text>
  <text style="stroke:none;fill:black;font-family:sans-serif;font-size:13;text-anchor:middle;" transform="matrix(1 0 0 1 2043.27 322)">Semibold</text>
  <text style="stroke:none;fill:black;font-family:sans-serif;font-size:13;text-anchor:middle;" transform="matrix(1 0 0 1 2339.98 322)">Bold</text>
  <text style="stroke:none;fill:black;font-family:sans-serif;font-size:13;text-anchor:middle;" transform="matrix(1 0 0 1 2636.69 322)">Heavy</text>
  <text style="stroke:none;fill:black;font-family:sans-serif;font-size:13;text-anchor:middle;" transform="matrix(1 0 0 1 2933.4 322)">Black</text>
  <line style="fill:none;stroke:black;opacity:1;stroke-width:0.5;" x1="263" x2="3036" y1="1903" y2="1903"/>
  <g transform="matrix(0.2 0 0 0.2 263 1933)">
   <path d="m46.2402 4.15039c21.5332 0 39.4531-17.8711 39.4531-39.4043s-17.9688-39.4043-39.502-39.4043c-21.4844 0-39.3555 17.8711-39.3555 39.4043s17.9199 39.4043 39.4043 39.4043Zm0-7.42188c-17.7246 0-31.8848-14.209-31.8848-31.9824s14.1113-31.9824 31.8359-31.9824c17.7734 0 32.0312 14.209 32.0312 31.9824s-14.209 31.9824-31.9824 31.9824Zm-17.9688-31.9824c0 2.14844 1.51367 3.61328 3.75977 3.61328h10.498v10.5957c0 2.19727 1.46484 3.71094 3.61328 3.71094 2.24609 0 3.71094-1.51367 3.71094-3.71094v-10.5957h10.5957c2.19727 0 3.71094-1.46484 3.71094-3.61328 0-2.19727-1.51367-3.71094-3.71094-3.71094h-10.5957v-10.5469c0-2.24609-1.46484-3.75977-3.71094-3.75977-2.14844 0-3.61328 1.51367-3.61328 3.75977v10.5469h-10.498c-2.24609 0-3.75977 1.51367-3.75977 3.71094Z"/>
  </g>
  <g transform="matrix(0.2 0 0 0.2 281.506 1933)">
   <path d="m58.5449 14.5508c27.2461 0 49.8047-22.6074 49.8047-49.8047 0-27.2461-22.6074-49.8047-49.8535-49.8047-27.1973 0-49.7559 22.5586-49.7559 49.8047 0 27.1973 22.6074 49.8047 49.8047 49.8047Zm0-8.30078c-23.0469 0-41.4551-18.457-41.4551-41.5039s18.3594-41.5039 41.4062-41.5039 41.5527 18.457 41.5527 41.5039-18.457 41.5039-41.5039 41.5039Zm-22.6562-41.5039c0 2.39258 1.66016 4.00391 4.15039 4.00391h14.3555v14.4043c0 2.44141 1.66016 4.15039 4.05273 4.15039 2.44141 0 4.15039-1.66016 4.15039-4.15039v-14.4043h14.4043c2.44141 0 4.15039-1.61133 4.15039-4.00391 0-2.44141-1.70898-4.15039-4.15039-4.15039h-14.4043v-14.3555c0-2.49023-1.70898-4.19922-4.15039-4.19922-2.39258 0-4.05273 1.70898-4.05273 4.19922v14.3555h-14.3555c-2.49023 0-4.15039 1.70898-4.15039 4.15039Z"/>
  </g>
  <g transform="matrix(0.2 0 0 0.2 304.924 1933)">
   <path d="m74.8535 28.3203c34.8145 0 63.623-28.8086 63.623-63.5742 0-34.8145-28.8574-63.623-63.6719-63.623-34.7656 0-63.5254 28.8086-63.5254 63.623 0 34.7656 28.8086 63.5742 63.5742 63.5742Zm0-9.08203c-30.1758 0-54.4434-24.3164-54.4434-54.4922 0-30.2246 24.2188-54.4922 54.3945-54.4922 30.2246 0 54.541 24.2676 54.541 54.4922 0 30.1758-24.2676 54.4922-54.4922 54.4922Zm-28.8574-54.4922c0 2.58789 1.85547 4.39453 4.58984 4.39453h19.7266v19.7754c0 2.68555 1.85547 4.58984 4.44336 4.58984 2.68555 0 4.54102-1.85547 4.54102-4.58984v-19.7754h19.7754c2.68555 0 4.58984-1.80664 4.58984-4.39453 0-2.73438-1.85547-4.58984-4.58984-4.58984h-19.7754v-19.7266c0-2.73438-1.85547-4.63867-4.54102-4.63867-2.58789 0-4.44336 1.9043-4.44336 4.63867v19.7266h-19.7266c-2.73438 0-4.58984 1.85547-4.58984 4.58984Z"/>
  </g>
  <text style="stroke:none;fill:black;font-family:sans-serif;font-size:13;font-weight:bold;" transform="matrix(1 0 0 1 263 1953)">Design Variations</text>
  <text style="stroke:none;fill:black;font-family:sans-serif;font-size:13;" transform="matrix(1 0 0 1 263 1971)">Symbols are supported in up to nine weights and three scales.</text>
  <text style="stroke:none;fill:black;font-family:sans-serif;font-size:13;" transform="matrix(1 0 0 1 263 1989)">For optimal layout with text and other symbols, vertically align</text>
  <text style="stroke:none;fill:black;font-family:sans-serif;font-size:13;" transform="matrix(1 0 0 1 263 2007)">symbols with the adjacent text.</text>
  <line style="fill:none;stroke:#00AEEF;stroke-width:0.5;opacity:1.0;" x1="776" x2="776" y1="1919" y2="1933"/>
  <g transform="matrix(0.2 0 0 0.2 776 1933)">
   <path d="m16.5527 0.78125c2.58789 0 3.85742-0.976562 4.78516-3.71094l6.29883-17.2363h28.8086l6.29883 17.2363c0.927734 2.73438 2.19727 3.71094 4.73633 3.71094 2.58789 0 4.24805-1.5625 4.24805-4.00391 0-0.830078-0.146484-1.61133-0.537109-2.63672l-22.9004-60.9863c-1.12305-2.97852-3.125-4.49219-6.25-4.49219-3.02734 0-5.07812 1.46484-6.15234 4.44336l-22.9004 61.084c-0.390625 1.02539-0.537109 1.80664-0.537109 2.63672 0 2.44141 1.5625 3.95508 4.10156 3.95508Zm13.4766-28.3691 11.8652-32.8613h0.244141l11.8652 32.8613Z"/>
  </g>
  <line style="fill:none;stroke:#00AEEF;stroke-width:0.5;opacity:1.0;" x1="792.836" x2="792.836" y1="1919" y2="1933"/>
  <text style="stroke:none;fill:black;font-family:sans-serif;font-size:13;font-weight:bold;" transform="matrix(1 0 0 1 776 1953)">Margins</text>
  <text style="stroke:none;fill:black;font-family:sans-serif;font-size:13;" transform="matrix(1 0 0 1 776 1971)">Leading and trailing margins on the left and right side of each symbol</text>
  <text style="stroke:none;fill:black;font-family:sans-serif;font-size:13;" transform="matrix(1 0 0 1 776 1989)">can be adjusted by modifying the x-location of the margin guidelines.</text>
  <text style="stroke:none;fill:black;font-family:sans-serif;font-size:13;" transform="matrix(1 0 0 1 776 2007)">Modifications are automatically applied proportionally to all</text>
  <text style="stroke:none;fill:black;font-family:sans-serif;font-size:13;" transform="matrix(1 0 0 1 776 2025)">scales and weights.</text>
  <g transform="matrix(0.2 0 0 0.2 1289 1933)">
   <path d="m14.209 9.32617 8.49609 8.54492c4.29688 4.3457 9.22852 4.05273 13.8672-1.07422l53.4668-58.9355-4.83398-4.88281-53.0762 58.3984c-1.75781 2.00195-3.41797 2.49023-5.76172 0.146484l-5.85938-5.81055c-2.34375-2.29492-1.80664-4.00391 0.195312-5.81055l57.373-54.0039-4.88281-4.83398-57.959 54.4434c-4.93164 4.58984-5.32227 9.47266-1.02539 13.8184Zm32.0801-90.9668c-2.09961 2.05078-2.24609 4.93164-1.07422 6.88477 1.17188 1.80664 3.4668 2.97852 6.68945 2.14844 7.32422-1.70898 14.9414-2.00195 22.0703 2.68555l-2.92969 7.27539c-1.70898 4.15039-0.830078 7.08008 1.85547 9.81445l11.4746 11.5723c2.44141 2.44141 4.49219 2.53906 7.32422 2.05078l5.32227-0.976562 3.32031 3.36914-0.195312 2.7832c-0.195312 2.49023 0.439453 4.39453 2.88086 6.78711l3.80859 3.71094c2.39258 2.39258 5.46875 2.53906 7.8125 0.195312l14.5508-14.5996c2.34375-2.34375 2.24609-5.32227-0.146484-7.71484l-3.85742-3.80859c-2.39258-2.39258-4.24805-3.17383-6.64062-2.97852l-2.88086 0.244141-3.22266-3.17383 1.2207-5.61523c0.634766-2.83203-0.146484-5.0293-3.07617-7.95898l-10.9863-10.9375c-16.6992-16.6016-38.8672-16.2109-53.3203-1.75781Zm7.4707 1.85547c12.1582-8.88672 28.6133-7.37305 39.7461 3.75977l12.1582 12.0605c1.17188 1.17188 1.36719 2.09961 1.02539 3.80859l-1.61133 7.42188 7.51953 7.42188 4.93164-0.292969c1.26953-0.0488281 1.66016 0.0488281 2.63672 1.02539l2.88086 2.88086-12.207 12.207-2.88086-2.88086c-0.976562-0.976562-1.12305-1.36719-1.07422-2.68555l0.341797-4.88281-7.4707-7.42188-7.61719 1.26953c-1.61133 0.341797-2.34375 0.195312-3.56445-0.976562l-10.0098-10.0098c-1.26953-1.17188-1.41602-2.00195-0.634766-3.85742l4.39453-10.4492c-7.8125-7.27539-17.9688-10.4004-28.125-7.42188-0.78125 0.195312-1.07422-0.439453-0.439453-0.976562Z"/>
  </g>
  <text style="stroke:none;fill:black;font-family:sans-serif;font-size:13;font-weight:bold;" transform="matrix(1 0 0 1 1289 1953)">Exporting</text>
  <text style="stroke:none;fill:black;font-family:sans-serif;font-size:13;" transform="matrix(1 0 0 1 1289 1971)">Symbols should be outlined when exporting to ensure the</text>
  <text style="stroke:none;fill:black;font-family:sans-serif;font-size:13;" transform="matrix(1 0 0 1 1289 1989)">design is preserved when submitting to Xcode.</text>
  <text id="template-version" style="stroke:none;fill:black;font-family:sans-serif;font-size:13;text-anchor:end;" transform="matrix(1 0 0 1 3036 1933)">Template v.4.0</text>
  <text style="stroke:none;fill:black;font-family:sans-serif;font-size:13;text-anchor:end;" transform="matrix(1 0 0 1 3036 1951)">Requires Xcode 14 or greater</text>
  <text id="descriptive-name" style="stroke:none;fill:black;font-family:sans-serif;font-size:13;text-anchor:end;" transform="matrix(1 0 0 1 3036 1969)">Generated from arrowkeys.up.filled</text>
  <text style="stroke:none;fill:black;font-family:sans-serif;font-size:13;text-anchor:end;" transform="matrix(1 0 0 1 3036 1987)">Typeset at 100.0 points</text>
  <text style="stroke:none;fill:black;font-family:sans-serif;font-size:13;" transform="matrix(1 0 0 1 263 726)">Small</text>
  <text style="stroke:none;fill:black;font-family:sans-serif;font-size:13;" transform="matrix(1 0 0 1 263 1156)">Medium</text>
  <text style="stroke:none;fill:black;font-family:sans-serif;font-size:13;" transform="matrix(1 0 0 1 263 1586)">Large</text>
 </g>
 <g id="Guides">
  <g id="H-reference" style="fill:#27AAE1;stroke:none;" transform="matrix(1 0 0 1 339 696)">
   <path d="M0.993654 0L3.63775 0L29.3281-67.1323L30.0303-67.1323L30.0303-70.459L28.1226-70.459ZM11.6885-24.4799L46.9815-24.4799L46.2315-26.7285L12.4385-26.7285ZM55.1196 0L57.7637 0L30.6382-70.459L29.4326-70.459L29.4326-67.1323Z"/>
  </g>
  <line id="Baseline-S" style="fill:none;stroke:#27AAE1;opacity:1;stroke-width:0.5;" x1="263" x2="3036" y1="696" y2="696"/>
  <line id="Capline-S" style="fill:none;stroke:#27AAE1;opacity:1;stroke-width:0.5;" x1="263" x2="3036" y1="625.541" y2="625.541"/>
  <g id="H-reference" style="fill:#27AAE1;stroke:none;" transform="matrix(1 0 0 1 339 1126)">
   <path d="M0.993654 0L3.63775 0L29.3281-67.1323L30.0303-67.1323L30.0303-70.459L28.1226-70.459ZM11.6885-24.4799L46.9815-24.4799L46.2315-26.7285L12.4385-26.7285ZM55.1196 0L57.7637 0L30.6382-70.459L29.4326-70.459L29.4326-67.1323Z"/>
  </g>
  <line id="Baseline-M" style="fill:none;stroke:#27AAE1;opacity:1;stroke-width:0.5;" x1="263" x2="3036" y1="1126" y2="1126"/>
  <line id="Capline-M" style="fill:none;stroke:#27AAE1;opacity:1;stroke-width:0.5;" x1="263" x2="3036" y1="1055.54" y2="1055.54"/>
  <g id="H-reference" style="fill:#27AAE1;stroke:none;" transform="matrix(1 0 0 1 339 1556)">
   <path d="M0.993654 0L3.63775 0L29.3281-67.1323L30.0303-67.1323L30.0303-70.459L28.1226-70.459ZM11.6885-24.4799L46.9815-24.4799L46.2315-26.7285L12.4385-26.7285ZM55.1196 0L57.7637 0L30.6382-70.459L29.4326-70.459L29.4326-67.1323Z"/>
  </g>
  <line id="Baseline-L" style="fill:none;stroke:#27AAE1;opacity:1;stroke-width:0.5;" x1="263" x2="3036" y1="1556" y2="1556"/>
  <line id="Capline-L" style="fill:none;stroke:#27AAE1;opacity:1;stroke-width:0.5;" x1="263" x2="3036" y1="1485.54" y2="1485.54"/>
  <line id="left-margin-Ultralight-S" style="fill:none;stroke:#00AEEF;stroke-width:0.5;opacity:1.0;" x1="486.402" x2="486.402" y1="600.785" y2="720.121"/>
  <line id="right-margin-Ultralight-S" style="fill:none;stroke:#00AEEF;stroke-width:0.5;opacity:1.0;" x1="633.02" x2="633.02" y1="600.785" y2="720.121"/>
  <line id="left-margin-Regular-S" style="fill:none;stroke:#00AEEF;stroke-width:0.5;opacity:1.0;" x1="1370.13" x2="1370.13" y1="600.785" y2="720.121"/>
  <line id="right-margin-Regular-S" style="fill:none;stroke:#00AEEF;stroke-width:0.5;opacity:1.0;" x1="1529.56" x2="1529.56" y1="600.785" y2="720.121"/>
  <line id="left-margin-Black-S" style="fill:none;stroke:#00AEEF;stroke-width:0.5;opacity:1.0;" x1="2847.71" x2="2847.71" y1="600.785" y2="720.121"/>
  <line id="right-margin-Black-S" style="fill:none;stroke:#00AEEF;stroke-width:0.5;opacity:1.0;" x1="3019.09" x2="3019.09" y1="600.785" y2="720.121"/>
 </g>
 <g id="Symbols">
  <g id="Black-S" transform="matrix(1 0 0 1 2847.71 696)">
   <path class="monochrome-0 multicolor-0:tintColor hierarchical-0:secondary SFSymbolsPreview007AFF" d="M20.2637 14.1602L45.6543 14.1602C52.0996 14.1602 56.1523 9.86328 56.1523 3.02734L56.1523-21.1426C56.1523-27.9785 52.0996-32.2754 45.6543-32.2754L20.2637-32.2754C13.8184-32.2754 9.76562-27.9785 9.76562-21.1426L9.76562 3.02734C9.76562 9.86328 13.8184 14.1602 20.2637 14.1602ZM72.998 14.1602L98.3887 14.1602C104.834 14.1602 108.887 9.86328 108.887 3.02734L108.887-21.1426C108.887-27.9785 104.834-32.2754 98.3887-32.2754L72.998-32.2754C66.5527-32.2754 62.5-27.9785 62.5-21.1426L62.5 3.02734C62.5 9.86328 66.5527 14.1602 72.998 14.1602ZM125.732 14.1602L151.123 14.1602C157.568 14.1602 161.621 9.86328 161.621 3.02734L161.621-21.1426C161.621-27.9785 157.568-32.2754 151.123-32.2754L125.732-32.2754C119.287-32.2754 115.234-27.9785 115.234-21.1426L115.234 3.02734C115.234 9.86328 119.287 14.1602 125.732 14.1602ZM21.3867 3.41797C20.8496 3.41797 20.5078 3.07617 20.5078 2.53906L20.5078-20.6543C20.5078-21.1914 20.8496-21.5332 21.3867-21.5332L44.5312-21.5332C45.0684-21.5332 45.4102-21.1914 45.4102-20.6543L45.4102 2.53906C45.4102 3.07617 45.0684 3.41797 44.5312 3.41797ZM74.2188 3.41797C73.6816 3.41797 73.3398 3.07617 73.3398 2.53906L73.3398-20.6543C73.3398-21.1914 73.6816-21.5332 74.2188-21.5332L97.3633-21.5332C97.9004-21.5332 98.2422-21.1914 98.2422-20.6543L98.2422 2.53906C98.2422 3.07617 97.9004 3.41797 97.3633 3.41797ZM126.855 3.41797C126.318 3.41797 125.977 3.07617 125.977 2.53906L125.977-20.6543C125.977-21.1914 126.318-21.5332 126.855-21.5332L150-21.5332C150.537-21.5332 150.879-21.1914 150.879-20.6543L150.879 2.53906C150.879 3.07617 150.537 3.41797 150 3.41797Z"/>
   <path class="monochrome-1 multicolor-1:tintColor hierarchical-1:tertiary SFSymbolsPreview007AFF" d="M72.998-38.623L98.3887-38.623C104.834-38.623 108.887-42.9199 108.887-49.7559L108.887-73.9258C108.887-80.7617 104.834-85.0586 98.3887-85.0586L72.998-85.0586C66.5527-85.0586 62.5-80.7617 62.5-73.9258L62.5-49.7559C62.5-42.9199 66.5527-38.623 72.998-38.623Z"/>
   <path class="monochrome-2 multicolor-2:tintColor hierarchical-2:primary SFSymbolsPreviewFFFFFF" d="M78.4668-53.0762C75.7812-53.0762 74.5605-55.7129 75.8789-57.959L82.9102-69.9219C84.1797-72.0703 87.207-72.0703 88.4766-69.9219L95.5078-57.959C96.8262-55.7617 95.6055-53.0762 92.8711-53.0762Z"/>
  </g>
  <g id="Regular-S" transform="matrix(1 0 0 1 1370.13 696)">
   <path class="monochrome-0 multicolor-0:tintColor hierarchical-0:secondary SFSymbolsPreview007AFF" d="M17.5293 10.4004L44.6777 10.4004C49.0234 10.4004 52.4902 6.93359 52.4902 2.53906L52.4902-24.4141C52.4902-28.8086 49.0234-32.3242 44.6777-32.3242L17.5293-32.3242C13.1836-32.3242 9.76562-28.8086 9.76562-24.4141L9.76562 2.53906C9.76562 6.93359 13.1836 10.4004 17.5293 10.4004ZM66.1133 10.4004L93.2129 10.4004C97.6074 10.4004 101.074 6.93359 101.074 2.53906L101.074-24.4141C101.074-28.8086 97.6074-32.3242 93.2129-32.3242L66.1133-32.3242C61.7676-32.3242 58.3496-28.8086 58.3496-24.4141L58.3496 2.53906C58.3496 6.93359 61.7676 10.4004 66.1133 10.4004ZM114.746 10.4004L141.846 10.4004C146.24 10.4004 149.658 6.93359 149.658 2.53906L149.658-24.4141C149.658-28.8086 146.24-32.3242 141.846-32.3242L114.746-32.3242C110.352-32.3242 106.934-28.8086 106.934-24.4141L106.934 2.53906C106.934 6.93359 110.352 10.4004 114.746 10.4004ZM17.5293 4.29688C16.6016 4.29688 15.8691 3.51562 15.8691 2.53906L15.8691-24.4141C15.8691-25.4395 16.6016-26.2207 17.5293-26.2207L44.6777-26.2207C45.6055-26.2207 46.3867-25.4395 46.3867-24.4141L46.3867 2.53906C46.3867 3.51562 45.6055 4.29688 44.6777 4.29688ZM66.1133 4.29688C65.1855 4.29688 64.4531 3.51562 64.4531 2.53906L64.4531-24.4141C64.4531-25.4395 65.1855-26.2207 66.1133-26.2207L93.2129-26.2207C94.1895-26.2207 94.9219-25.4395 94.9219-24.4141L94.9219 2.53906C94.9219 3.51562 94.1895 4.29688 93.2129 4.29688ZM114.746 4.29688C113.818 4.29688 113.037 3.51562 113.037 2.53906L113.037-24.4141C113.037-25.4395 113.818-26.2207 114.746-26.2207L141.846-26.2207C142.822-26.2207 143.506-25.4395 143.506-24.4141L143.506 2.53906C143.506 3.51562 142.822 4.29688 141.846 4.29688Z"/>
   <path class="monochrome-1 multicolor-1:tintColor hierarchical-1:tertiary SFSymbolsPreview007AFF" d="M66.1133-38.1836L93.2129-38.1836C97.6074-38.1836 101.074-41.6504 101.074-46.0449L101.074-72.998C101.074-77.3926 97.6074-80.9082 93.2129-80.9082L66.1133-80.9082C61.7676-80.9082 58.3496-77.3926 58.3496-72.998L58.3496-46.0449C58.3496-41.6504 61.7676-38.1836 66.1133-38.1836Z"/>
   <path class="monochrome-2 multicolor-2:tintColor hierarchical-2:primary SFSymbolsPreviewFFFFFF" d="M71.1426-49.9023C69.3359-49.9023 68.2129-52.0508 69.2383-53.7598L77.4902-68.0664C78.418-69.6289 80.8594-69.6777 81.7871-68.1152L90.1855-53.7598C91.2109-52.0508 90.0391-49.9023 88.2812-49.9023Z"/>
  </g>
  <g id="Ultralight-S" transform="matrix(1 0 0 1 486.402 696)">
   <path class="monochrome-0 multicolor-0:tintColor hierarchical-0:secondary SFSymbolsPreview007AFF" d="M15.2588 6.13187L42.6343 6.13187C45.8448 6.13187 48.1763 3.89114 48.1763 0.631851L48.1763-26.8208C48.1763-30.0801 45.8448-32.3242 42.6343-32.3242L15.2588-32.3242C12.0029-32.3242 9.76562-30.0801 9.76562-26.8208L9.76562 0.631851C9.76562 3.89114 12.0029 6.13187 15.2588 6.13187ZM59.5743 6.13187L86.9463 6.13187C90.1602 6.13187 92.4918 3.89114 92.4918 0.631851L92.4918-26.8208C92.4918-30.0801 90.1602-32.3242 86.9463-32.3242L59.5743-32.3242C56.3184-32.3242 54.0811-30.0801 54.0811-26.8208L54.0811 0.631851C54.0811 3.89114 56.3184 6.13187 59.5743 6.13187ZM103.939 6.13187L131.311 6.13187C134.525 6.13187 136.853 3.89114 136.853 0.631851L136.853-26.8208C136.853-30.0801 134.525-32.3242 131.311-32.3242L103.939-32.3242C100.679-32.3242 98.442-30.0801 98.442-26.8208L98.442 0.631851C98.442 3.89114 100.679 6.13187 103.939 6.13187ZM15.2588 3.97901C13.2866 3.97901 11.9185 2.60743 11.9185 0.631851L11.9185-26.8208C11.9185-28.7998 13.2866-30.1714 15.2588-30.1714L42.6343-30.1714C44.6519-30.1714 46.0234-28.7998 46.0234-26.8208L46.0234 0.631851C46.0234 2.60743 44.6519 3.97901 42.6343 3.97901ZM59.5743 3.97901C57.6021 3.97901 56.234 2.60743 56.234 0.631851L56.234-26.8208C56.234-28.7998 57.6021-30.1714 59.5743-30.1714L86.9463-30.1714C88.9219-30.1714 90.3355-28.7998 90.3355-26.8208L90.3355 0.631851C90.3355 2.60743 88.9219 3.97901 86.9463 3.97901ZM103.939 3.97901C101.966 3.97901 100.595 2.60743 100.595 0.631851L100.595-26.8208C100.595-28.7998 101.966-30.1714 103.939-30.1714L131.311-30.1714C133.286-30.1714 134.696-28.7998 134.696-26.8208L134.696 0.631851C134.696 2.60743 133.286 3.97901 131.311 3.97901Z"/>
   <path class="monochrome-1 multicolor-1:tintColor hierarchical-1:tertiary SFSymbolsPreview007AFF" d="M59.5743-38.1836L86.9463-38.1836C90.1602-38.1836 92.4918-40.4243 92.4918-43.6836L92.4918-71.1362C92.4918-74.3955 90.1602-76.6397 86.9463-76.6397L59.5743-76.6397C56.3184-76.6397 54.0811-74.3955 54.0811-71.1362L54.0811-43.6836C54.0811-40.4243 56.3184-38.1836 59.5743-38.1836Z"/>
   <path class="monochrome-2 multicolor-2:tintColor hierarchical-2:primary SFSymbolsPreviewFFFFFF" d="M63.0596-48.0405C62.1612-48.0405 61.5831-49.1446 62.1998-50.0816L71.9956-66.25C72.6055-67.2222 73.8663-67.2256 74.4307-66.2534L84.3731-50.0816C84.9444-49.19 84.4082-48.0405 83.5132-48.0405Z"/>
  </g>
 </g>
</svg>
